<svg width="200" height="340" viewBox="0 0 200 340" fill="none" xmlns="http://www.w3.org/2000/svg">
    <g class="element" data-partName="watch_body">
        <rect y="70" width="200" height="200" rx="28" fill="#4E4F53"/>
    </g>
    <g class="element" data-partName="display">
        <rect x="10" y="80" width="180" height="180" rx="18" fill="black"/>
    </g>
    <g class="element" data-partName="notifation_bar_line">
        <line x1="10.0028" y1="97.5" x2="190.003" y2="98.5" stroke="#749BFE"/>
    </g>
    <g class="element" data-partName="screen_name">
        <path d="M21.6289 86.3125L23.4883 90.9531L25.3477 86.3125H26.3203V92H25.5703V89.7852L25.6406 87.3945L23.7734 92H23.1992L21.3359 87.4062L21.4102 89.7852V92H20.6602V86.3125H21.6289ZM30.1406 91.582C29.8594 91.9128 29.4466 92.0781 28.9023 92.0781C28.4518 92.0781 28.1081 91.9479 27.8711 91.6875C27.6367 91.4245 27.5182 91.0365 27.5156 90.5234V87.7734H28.2383V90.5039C28.2383 91.1445 28.4987 91.4648 29.0195 91.4648C29.5716 91.4648 29.9388 91.2591 30.1211 90.8477V87.7734H30.8438V92H30.1562L30.1406 91.582ZM34.4062 90.8789C34.4062 90.6836 34.332 90.5326 34.1836 90.4258C34.0378 90.3164 33.7812 90.2227 33.4141 90.1445C33.0495 90.0664 32.7591 89.9727 32.543 89.8633C32.3294 89.7539 32.1706 89.6237 32.0664 89.4727C31.9648 89.3216 31.9141 89.1419 31.9141 88.9336C31.9141 88.5872 32.0599 88.2943 32.3516 88.0547C32.6458 87.8151 33.0208 87.6953 33.4766 87.6953C33.9557 87.6953 34.3438 87.819 34.6406 88.0664C34.9401 88.3138 35.0898 88.6302 35.0898 89.0156H34.3633C34.3633 88.8177 34.2786 88.6471 34.1094 88.5039C33.9427 88.3607 33.7318 88.2891 33.4766 88.2891C33.2135 88.2891 33.0078 88.3464 32.8594 88.4609C32.7109 88.5755 32.6367 88.7253 32.6367 88.9102C32.6367 89.0846 32.7057 89.2161 32.8438 89.3047C32.9818 89.3932 33.2305 89.4779 33.5898 89.5586C33.9518 89.6393 34.2448 89.7357 34.4688 89.8477C34.6927 89.9596 34.8581 90.0951 34.9648 90.2539C35.0742 90.4102 35.1289 90.6016 35.1289 90.8281C35.1289 91.2057 34.9779 91.5091 34.6758 91.7383C34.3737 91.9648 33.9818 92.0781 33.5 92.0781C33.1615 92.0781 32.862 92.0182 32.6016 91.8984C32.3411 91.7786 32.1367 91.612 31.9883 91.3984C31.8424 91.1823 31.7695 90.9492 31.7695 90.6992H32.4922C32.5052 90.9414 32.6016 91.1341 32.7812 91.2773C32.9635 91.418 33.2031 91.4883 33.5 91.4883C33.7734 91.4883 33.9922 91.4336 34.1562 91.3242C34.3229 91.2122 34.4062 91.0638 34.4062 90.8789ZM36.8555 92H36.1328V87.7734H36.8555V92ZM36.0742 86.6523C36.0742 86.5352 36.1094 86.4362 36.1797 86.3555C36.2526 86.2747 36.3594 86.2344 36.5 86.2344C36.6406 86.2344 36.7474 86.2747 36.8203 86.3555C36.8932 86.4362 36.9297 86.5352 36.9297 86.6523C36.9297 86.7695 36.8932 86.8672 36.8203 86.9453C36.7474 87.0234 36.6406 87.0625 36.5 87.0625C36.3594 87.0625 36.2526 87.0234 36.1797 86.9453C36.1094 86.8672 36.0742 86.7695 36.0742 86.6523ZM39.7109 91.4883C39.9688 91.4883 40.194 91.4102 40.3867 91.2539C40.5794 91.0977 40.6862 90.9023 40.707 90.668H41.3906C41.3776 90.9102 41.2943 91.1406 41.1406 91.3594C40.987 91.5781 40.7812 91.7526 40.5234 91.8828C40.2682 92.013 39.9974 92.0781 39.7109 92.0781C39.1354 92.0781 38.6771 91.8867 38.3359 91.5039C37.9974 91.1185 37.8281 90.5924 37.8281 89.9258V89.8047C37.8281 89.3932 37.9036 89.0273 38.0547 88.707C38.2057 88.3867 38.4219 88.138 38.7031 87.9609C38.987 87.7839 39.3216 87.6953 39.707 87.6953C40.181 87.6953 40.5742 87.8372 40.8867 88.1211C41.2018 88.4049 41.3698 88.7734 41.3906 89.2266H40.707C40.6862 88.9531 40.582 88.7292 40.3945 88.5547C40.2096 88.3776 39.9805 88.2891 39.707 88.2891C39.3398 88.2891 39.0547 88.4219 38.8516 88.6875C38.651 88.9505 38.5508 89.332 38.5508 89.832V89.9688C38.5508 90.4557 38.651 90.8307 38.8516 91.0938C39.0521 91.3568 39.3385 91.4883 39.7109 91.4883Z" fill="white"/>
    </g>
    <g class="element" data-partName="time_placeholder">
        <path d="M151.848 93H151.121V88.1836L149.664 88.7188V88.0625L151.734 87.2852H151.848V93ZM157.531 90.5742C157.531 91.4206 157.387 92.0495 157.098 92.4609C156.809 92.8724 156.357 93.0781 155.742 93.0781C155.135 93.0781 154.686 92.8776 154.395 92.4766C154.103 92.0729 153.952 91.4714 153.941 90.6719V89.707C153.941 88.8711 154.086 88.25 154.375 87.8438C154.664 87.4375 155.117 87.2344 155.734 87.2344C156.346 87.2344 156.797 87.431 157.086 87.8242C157.375 88.2148 157.523 88.819 157.531 89.6367V90.5742ZM156.809 89.5859C156.809 88.974 156.723 88.5286 156.551 88.25C156.379 87.9688 156.107 87.8281 155.734 87.8281C155.365 87.8281 155.095 87.9674 154.926 88.2461C154.757 88.5247 154.669 88.9531 154.664 89.5312V90.6875C154.664 91.3021 154.753 91.7565 154.93 92.0508C155.109 92.3424 155.38 92.4883 155.742 92.4883C156.099 92.4883 156.363 92.3503 156.535 92.0742C156.71 91.7982 156.801 91.3633 156.809 90.7695V89.5859ZM158.508 92.6211C158.508 92.4961 158.544 92.3919 158.617 92.3086C158.693 92.2253 158.805 92.1836 158.953 92.1836C159.102 92.1836 159.214 92.2253 159.289 92.3086C159.367 92.3919 159.406 92.4961 159.406 92.6211C159.406 92.7409 159.367 92.8411 159.289 92.9219C159.214 93.0026 159.102 93.043 158.953 93.043C158.805 93.043 158.693 93.0026 158.617 92.9219C158.544 92.8411 158.508 92.7409 158.508 92.6211ZM158.512 89.1719C158.512 89.0469 158.548 88.9427 158.621 88.8594C158.697 88.776 158.809 88.7344 158.957 88.7344C159.105 88.7344 159.217 88.776 159.293 88.8594C159.371 88.9427 159.41 89.0469 159.41 89.1719C159.41 89.2917 159.371 89.3919 159.293 89.4727C159.217 89.5534 159.105 89.5938 158.957 89.5938C158.809 89.5938 158.697 89.5534 158.621 89.4727C158.548 89.3919 158.512 89.2917 158.512 89.1719ZM162.77 93H162.043V88.1836L160.586 88.7188V88.0625L162.656 87.2852H162.77V93ZM168.453 90.5742C168.453 91.4206 168.309 92.0495 168.02 92.4609C167.73 92.8724 167.279 93.0781 166.664 93.0781C166.057 93.0781 165.608 92.8776 165.316 92.4766C165.025 92.0729 164.874 91.4714 164.863 90.6719V89.707C164.863 88.8711 165.008 88.25 165.297 87.8438C165.586 87.4375 166.039 87.2344 166.656 87.2344C167.268 87.2344 167.719 87.431 168.008 87.8242C168.297 88.2148 168.445 88.819 168.453 89.6367V90.5742ZM167.73 89.5859C167.73 88.974 167.645 88.5286 167.473 88.25C167.301 87.9688 167.029 87.8281 166.656 87.8281C166.286 87.8281 166.017 87.9674 165.848 88.2461C165.678 88.5247 165.591 88.9531 165.586 89.5312V90.6875C165.586 91.3021 165.674 91.7565 165.852 92.0508C166.031 92.3424 166.302 92.4883 166.664 92.4883C167.021 92.4883 167.285 92.3503 167.457 92.0742C167.632 91.7982 167.723 91.3633 167.73 90.7695V89.5859ZM174.047 93C174.005 92.9167 173.971 92.7682 173.945 92.5547C173.609 92.9036 173.208 93.0781 172.742 93.0781C172.326 93.0781 171.983 92.9609 171.715 92.7266C171.449 92.4896 171.316 92.1901 171.316 91.8281C171.316 91.388 171.483 91.0469 171.816 90.8047C172.152 90.5599 172.624 90.4375 173.23 90.4375H173.934V90.1055C173.934 89.8529 173.858 89.6523 173.707 89.5039C173.556 89.3529 173.333 89.2773 173.039 89.2773C172.781 89.2773 172.565 89.3424 172.391 89.4727C172.216 89.6029 172.129 89.7604 172.129 89.9453H171.402C171.402 89.7344 171.477 89.5312 171.625 89.3359C171.776 89.138 171.979 88.9818 172.234 88.8672C172.492 88.7526 172.775 88.6953 173.082 88.6953C173.569 88.6953 173.951 88.8177 174.227 89.0625C174.503 89.3047 174.646 89.6393 174.656 90.0664V92.0117C174.656 92.3997 174.706 92.7083 174.805 92.9375V93H174.047ZM172.848 92.4492C173.074 92.4492 173.289 92.3906 173.492 92.2734C173.695 92.1562 173.842 92.0039 173.934 91.8164V90.9492H173.367C172.482 90.9492 172.039 91.2083 172.039 91.7266C172.039 91.9531 172.115 92.1302 172.266 92.2578C172.417 92.3854 172.611 92.4492 172.848 92.4492ZM176.469 88.7734L176.488 89.2422C176.798 88.8776 177.216 88.6953 177.742 88.6953C178.333 88.6953 178.736 88.9219 178.949 89.375C179.09 89.1719 179.272 89.0078 179.496 88.8828C179.723 88.7578 179.99 88.6953 180.297 88.6953C181.224 88.6953 181.695 89.1862 181.711 90.168V93H180.988V90.2109C180.988 89.9089 180.919 89.6836 180.781 89.5352C180.643 89.3841 180.411 89.3086 180.086 89.3086C179.818 89.3086 179.595 89.3893 179.418 89.5508C179.241 89.7096 179.138 89.9245 179.109 90.1953V93H178.383V90.2305C178.383 89.6159 178.082 89.3086 177.48 89.3086C177.007 89.3086 176.682 89.5104 176.508 89.9141V93H175.785V88.7734H176.469Z" fill="white"/>
    </g>
    <g class="element" data-partName="play_pause_icon">
        <rect x="91" y="224" width="6" height="23" rx="1" fill="white"/>
        <rect x="104" y="224" width="6" height="23" rx="1" fill="white"/>
    </g>
    <g class="element" data-partName="rewind_icon">
        <path d="M48 236L55.5 230.804L55.5 241.196L48 236Z" fill="white"/>
        <path d="M56 236L63.5 230.804L63.5 241.196L56 236Z" fill="white"/>
    </g>
    <g class="element" data-partName="forward_icon">
        <path d="M153 236L145.5 241.196V230.804L153 236Z" fill="white"/>
        <path d="M145 236L137.5 241.196V230.804L145 236Z" fill="white"/>
    </g>
    <g class="element" data-partName="thumbnail">
            <rect x="60" y="123" width="80" height="60" fill="white"/>
        <clipPath id="circleView">
        </clipPath>
        <image  src="./arvinth.png" clip-path="url(#circleView)" />
    </g>
    <g class="element" data-partName="song_name">
        <path d="M76.0312 193H75.2773V190.371H72.4102V193H71.6602V187.312H72.4102V189.758H75.2773V187.312H76.0312V193ZM79.8594 192.582C79.5781 192.913 79.1654 193.078 78.6211 193.078C78.1706 193.078 77.8268 192.948 77.5898 192.688C77.3555 192.424 77.237 192.036 77.2344 191.523V188.773H77.957V191.504C77.957 192.145 78.2174 192.465 78.7383 192.465C79.2904 192.465 79.6576 192.259 79.8398 191.848V188.773H80.5625V193H79.875L79.8594 192.582ZM82.3438 188.773L82.3633 189.242C82.6732 188.878 83.0911 188.695 83.6172 188.695C84.2083 188.695 84.6107 188.922 84.8242 189.375C84.9648 189.172 85.1471 189.008 85.3711 188.883C85.5977 188.758 85.8646 188.695 86.1719 188.695C87.099 188.695 87.5703 189.186 87.5859 190.168V193H86.8633V190.211C86.8633 189.909 86.7943 189.684 86.6562 189.535C86.5182 189.384 86.2865 189.309 85.9609 189.309C85.6927 189.309 85.4701 189.389 85.293 189.551C85.1159 189.71 85.013 189.924 84.9844 190.195V193H84.2578V190.23C84.2578 189.616 83.957 189.309 83.3555 189.309C82.8815 189.309 82.5573 189.51 82.3828 189.914V193H81.6602V188.773H82.3438ZM89.3594 188.773L89.3789 189.242C89.6888 188.878 90.1068 188.695 90.6328 188.695C91.224 188.695 91.6263 188.922 91.8398 189.375C91.9805 189.172 92.1628 189.008 92.3867 188.883C92.6133 188.758 92.8802 188.695 93.1875 188.695C94.1146 188.695 94.5859 189.186 94.6016 190.168V193H93.8789V190.211C93.8789 189.909 93.8099 189.684 93.6719 189.535C93.5339 189.384 93.3021 189.309 92.9766 189.309C92.7083 189.309 92.4857 189.389 92.3086 189.551C92.1315 189.71 92.0286 189.924 92 190.195V193H91.2734V190.23C91.2734 189.616 90.9727 189.309 90.3711 189.309C89.8971 189.309 89.5729 189.51 89.3984 189.914V193H88.6758V188.773H89.3594ZM98.3047 193C98.263 192.917 98.2292 192.768 98.2031 192.555C97.8672 192.904 97.4661 193.078 97 193.078C96.5833 193.078 96.2409 192.961 95.9727 192.727C95.707 192.49 95.5742 192.19 95.5742 191.828C95.5742 191.388 95.7409 191.047 96.0742 190.805C96.4102 190.56 96.8815 190.438 97.4883 190.438H98.1914V190.105C98.1914 189.853 98.1159 189.652 97.9648 189.504C97.8138 189.353 97.5911 189.277 97.2969 189.277C97.0391 189.277 96.8229 189.342 96.6484 189.473C96.474 189.603 96.3867 189.76 96.3867 189.945H95.6602C95.6602 189.734 95.7344 189.531 95.8828 189.336C96.0339 189.138 96.237 188.982 96.4922 188.867C96.75 188.753 97.0326 188.695 97.3398 188.695C97.8268 188.695 98.2083 188.818 98.4844 189.062C98.7604 189.305 98.9036 189.639 98.9141 190.066V192.012C98.9141 192.4 98.9635 192.708 99.0625 192.938V193H98.3047ZM97.1055 192.449C97.332 192.449 97.5469 192.391 97.75 192.273C97.9531 192.156 98.1003 192.004 98.1914 191.816V190.949H97.625C96.7396 190.949 96.2969 191.208 96.2969 191.727C96.2969 191.953 96.3724 192.13 96.5234 192.258C96.6745 192.385 96.8685 192.449 97.1055 192.449ZM102.754 189.285C103.074 188.892 103.491 188.695 104.004 188.695C104.897 188.695 105.348 189.199 105.355 190.207V193H104.633V190.203C104.63 189.898 104.56 189.673 104.422 189.527C104.286 189.382 104.074 189.309 103.785 189.309C103.551 189.309 103.345 189.371 103.168 189.496C102.991 189.621 102.853 189.785 102.754 189.988V193H102.031V187H102.754V189.285ZM109.047 192.582C108.766 192.913 108.353 193.078 107.809 193.078C107.358 193.078 107.014 192.948 106.777 192.688C106.543 192.424 106.424 192.036 106.422 191.523V188.773H107.145V191.504C107.145 192.145 107.405 192.465 107.926 192.465C108.478 192.465 108.845 192.259 109.027 191.848V188.773H109.75V193H109.062L109.047 192.582ZM111.531 188.773L111.551 189.242C111.861 188.878 112.279 188.695 112.805 188.695C113.396 188.695 113.798 188.922 114.012 189.375C114.152 189.172 114.335 189.008 114.559 188.883C114.785 188.758 115.052 188.695 115.359 188.695C116.286 188.695 116.758 189.186 116.773 190.168V193H116.051V190.211C116.051 189.909 115.982 189.684 115.844 189.535C115.706 189.384 115.474 189.309 115.148 189.309C114.88 189.309 114.658 189.389 114.48 189.551C114.303 189.71 114.201 189.924 114.172 190.195V193H113.445V190.23C113.445 189.616 113.145 189.309 112.543 189.309C112.069 189.309 111.745 189.51 111.57 189.914V193H110.848V188.773H111.531ZM118.547 188.773L118.566 189.242C118.876 188.878 119.294 188.695 119.82 188.695C120.411 188.695 120.814 188.922 121.027 189.375C121.168 189.172 121.35 189.008 121.574 188.883C121.801 188.758 122.068 188.695 122.375 188.695C123.302 188.695 123.773 189.186 123.789 190.168V193H123.066V190.211C123.066 189.909 122.997 189.684 122.859 189.535C122.721 189.384 122.49 189.309 122.164 189.309C121.896 189.309 121.673 189.389 121.496 189.551C121.319 189.71 121.216 189.924 121.188 190.195V193H120.461V190.23C120.461 189.616 120.16 189.309 119.559 189.309C119.085 189.309 118.76 189.51 118.586 189.914V193H117.863V188.773H118.547ZM127.492 193C127.451 192.917 127.417 192.768 127.391 192.555C127.055 192.904 126.654 193.078 126.188 193.078C125.771 193.078 125.428 192.961 125.16 192.727C124.895 192.49 124.762 192.19 124.762 191.828C124.762 191.388 124.928 191.047 125.262 190.805C125.598 190.56 126.069 190.438 126.676 190.438H127.379V190.105C127.379 189.853 127.303 189.652 127.152 189.504C127.001 189.353 126.779 189.277 126.484 189.277C126.227 189.277 126.01 189.342 125.836 189.473C125.661 189.603 125.574 189.76 125.574 189.945H124.848C124.848 189.734 124.922 189.531 125.07 189.336C125.221 189.138 125.424 188.982 125.68 188.867C125.938 188.753 126.22 188.695 126.527 188.695C127.014 188.695 127.396 188.818 127.672 189.062C127.948 189.305 128.091 189.639 128.102 190.066V192.012C128.102 192.4 128.151 192.708 128.25 192.938V193H127.492ZM126.293 192.449C126.52 192.449 126.734 192.391 126.938 192.273C127.141 192.156 127.288 192.004 127.379 191.816V190.949H126.812C125.927 190.949 125.484 191.208 125.484 191.727C125.484 191.953 125.56 192.13 125.711 192.258C125.862 192.385 126.056 192.449 126.293 192.449Z" fill="white"/>
    </g>
    <g class="element" data-partName="artist_name">
        <path d="M62.0352 203.34C62.0352 203.897 61.9414 204.384 61.7539 204.801C61.5664 205.215 61.3008 205.531 60.957 205.75C60.6133 205.969 60.2122 206.078 59.7539 206.078C59.306 206.078 58.9089 205.969 58.5625 205.75C58.2161 205.529 57.9466 205.215 57.7539 204.809C57.5638 204.4 57.4661 203.927 57.4609 203.391V202.98C57.4609 202.434 57.556 201.951 57.7461 201.531C57.9362 201.112 58.2044 200.792 58.5508 200.57C58.8997 200.346 59.2982 200.234 59.7461 200.234C60.2018 200.234 60.6029 200.345 60.9492 200.566C61.2982 200.785 61.5664 201.104 61.7539 201.523C61.9414 201.94 62.0352 202.426 62.0352 202.98V203.34ZM61.2891 202.973C61.2891 202.298 61.1536 201.781 60.8828 201.422C60.612 201.06 60.2331 200.879 59.7461 200.879C59.2721 200.879 58.8984 201.06 58.625 201.422C58.3542 201.781 58.2148 202.281 58.207 202.922V203.34C58.207 203.993 58.3438 204.508 58.6172 204.883C58.8932 205.255 59.2721 205.441 59.7539 205.441C60.2383 205.441 60.6133 205.266 60.8789 204.914C61.1445 204.56 61.2812 204.053 61.2891 203.395V202.973ZM64.6055 203.355L63.9102 204.078V206H63.1602V200.312H63.9102V203.125L66.4375 200.312H67.3438L65.1055 202.824L67.5195 206H66.6211L64.6055 203.355ZM72.543 200.312H73.2969V204.34C73.2969 204.884 73.1328 205.31 72.8047 205.617C72.4792 205.924 72.0443 206.078 71.5 206.078C70.9349 206.078 70.4948 205.934 70.1797 205.645C69.8646 205.355 69.707 204.951 69.707 204.43H70.457C70.457 204.755 70.5456 205.009 70.7227 205.191C70.9023 205.374 71.1615 205.465 71.5 205.465C71.8099 205.465 72.0599 205.367 72.25 205.172C72.4427 204.977 72.5404 204.703 72.543 204.352V200.312ZM77.0703 206C77.0286 205.917 76.9948 205.768 76.9688 205.555C76.6328 205.904 76.2318 206.078 75.7656 206.078C75.349 206.078 75.0065 205.961 74.7383 205.727C74.4727 205.49 74.3398 205.19 74.3398 204.828C74.3398 204.388 74.5065 204.047 74.8398 203.805C75.1758 203.56 75.6471 203.438 76.2539 203.438H76.957V203.105C76.957 202.853 76.8815 202.652 76.7305 202.504C76.5794 202.353 76.3568 202.277 76.0625 202.277C75.8047 202.277 75.5885 202.342 75.4141 202.473C75.2396 202.603 75.1523 202.76 75.1523 202.945H74.4258C74.4258 202.734 74.5 202.531 74.6484 202.336C74.7995 202.138 75.0026 201.982 75.2578 201.867C75.5156 201.753 75.7982 201.695 76.1055 201.695C76.5924 201.695 76.974 201.818 77.25 202.062C77.526 202.305 77.6693 202.639 77.6797 203.066V205.012C77.6797 205.4 77.7292 205.708 77.8281 205.938V206H77.0703ZM75.8711 205.449C76.0977 205.449 76.3125 205.391 76.5156 205.273C76.7188 205.156 76.8659 205.004 76.957 204.816V203.949H76.3906C75.5052 203.949 75.0625 204.208 75.0625 204.727C75.0625 204.953 75.138 205.13 75.2891 205.258C75.4401 205.385 75.6341 205.449 75.8711 205.449ZM79.4961 201.773L79.5195 202.305C79.8424 201.898 80.2643 201.695 80.7852 201.695C81.6784 201.695 82.1289 202.199 82.1367 203.207V206H81.4141V203.203C81.4115 202.898 81.3411 202.673 81.2031 202.527C81.0677 202.382 80.8555 202.309 80.5664 202.309C80.332 202.309 80.1263 202.371 79.9492 202.496C79.7721 202.621 79.6341 202.785 79.5352 202.988V206H78.8125V201.773H79.4961ZM85.8359 205.582C85.5547 205.913 85.1419 206.078 84.5977 206.078C84.1471 206.078 83.8034 205.948 83.5664 205.688C83.332 205.424 83.2135 205.036 83.2109 204.523V201.773H83.9336V204.504C83.9336 205.145 84.194 205.465 84.7148 205.465C85.2669 205.465 85.6341 205.259 85.8164 204.848V201.773H86.5391V206H85.8516L85.8359 205.582ZM89.1445 203.879H87.2383V203.289H89.1445V203.879ZM93.1055 204.516H90.7227L90.1875 206H89.4141L91.5859 200.312H92.2422L94.418 206H93.6484L93.1055 204.516ZM90.9492 203.898H92.8828L91.9141 201.238L90.9492 203.898ZM95.0859 205.621C95.0859 205.496 95.1224 205.392 95.1953 205.309C95.2708 205.225 95.3828 205.184 95.5312 205.184C95.6797 205.184 95.7917 205.225 95.8672 205.309C95.9453 205.392 95.9844 205.496 95.9844 205.621C95.9844 205.741 95.9453 205.841 95.8672 205.922C95.7917 206.003 95.6797 206.043 95.5312 206.043C95.3828 206.043 95.2708 206.003 95.1953 205.922C95.1224 205.841 95.0859 205.741 95.0859 205.621ZM99.3789 203.699H98.043V206H97.2891V200.312H99.1719C99.8125 200.312 100.305 200.458 100.648 200.75C100.995 201.042 101.168 201.466 101.168 202.023C101.168 202.378 101.072 202.686 100.879 202.949C100.689 203.212 100.423 203.409 100.082 203.539L101.418 205.953V206H100.613L99.3789 203.699ZM98.043 203.086H99.1953C99.5677 203.086 99.8633 202.99 100.082 202.797C100.303 202.604 100.414 202.346 100.414 202.023C100.414 201.672 100.309 201.402 100.098 201.215C99.8893 201.027 99.5872 200.932 99.1914 200.93H98.043V203.086ZM102.125 205.621C102.125 205.496 102.161 205.392 102.234 205.309C102.31 205.225 102.422 205.184 102.57 205.184C102.719 205.184 102.831 205.225 102.906 205.309C102.984 205.392 103.023 205.496 103.023 205.621C103.023 205.741 102.984 205.841 102.906 205.922C102.831 206.003 102.719 206.043 102.57 206.043C102.422 206.043 102.31 206.003 102.234 205.922C102.161 205.841 102.125 205.741 102.125 205.621ZM108.402 203.699H107.066V206H106.312V200.312H108.195C108.836 200.312 109.328 200.458 109.672 200.75C110.018 201.042 110.191 201.466 110.191 202.023C110.191 202.378 110.095 202.686 109.902 202.949C109.712 203.212 109.447 203.409 109.105 203.539L110.441 205.953V206H109.637L108.402 203.699ZM107.066 203.086H108.219C108.591 203.086 108.887 202.99 109.105 202.797C109.327 202.604 109.438 202.346 109.438 202.023C109.438 201.672 109.332 201.402 109.121 201.215C108.913 201.027 108.611 200.932 108.215 200.93H107.066V203.086ZM113.742 206C113.701 205.917 113.667 205.768 113.641 205.555C113.305 205.904 112.904 206.078 112.438 206.078C112.021 206.078 111.678 205.961 111.41 205.727C111.145 205.49 111.012 205.19 111.012 204.828C111.012 204.388 111.178 204.047 111.512 203.805C111.848 203.56 112.319 203.438 112.926 203.438H113.629V203.105C113.629 202.853 113.553 202.652 113.402 202.504C113.251 202.353 113.029 202.277 112.734 202.277C112.477 202.277 112.26 202.342 112.086 202.473C111.911 202.603 111.824 202.76 111.824 202.945H111.098C111.098 202.734 111.172 202.531 111.32 202.336C111.471 202.138 111.674 201.982 111.93 201.867C112.188 201.753 112.47 201.695 112.777 201.695C113.264 201.695 113.646 201.818 113.922 202.062C114.198 202.305 114.341 202.639 114.352 203.066V205.012C114.352 205.4 114.401 205.708 114.5 205.938V206H113.742ZM112.543 205.449C112.77 205.449 112.984 205.391 113.188 205.273C113.391 205.156 113.538 205.004 113.629 204.816V203.949H113.062C112.177 203.949 111.734 204.208 111.734 204.727C111.734 204.953 111.81 205.13 111.961 205.258C112.112 205.385 112.306 205.449 112.543 205.449ZM116.207 202.285C116.527 201.892 116.944 201.695 117.457 201.695C118.35 201.695 118.801 202.199 118.809 203.207V206H118.086V203.203C118.083 202.898 118.013 202.673 117.875 202.527C117.74 202.382 117.527 202.309 117.238 202.309C117.004 202.309 116.798 202.371 116.621 202.496C116.444 202.621 116.306 202.785 116.207 202.988V206H115.484V200H116.207V202.285ZM120.57 201.773L120.59 202.242C120.9 201.878 121.318 201.695 121.844 201.695C122.435 201.695 122.837 201.922 123.051 202.375C123.191 202.172 123.374 202.008 123.598 201.883C123.824 201.758 124.091 201.695 124.398 201.695C125.326 201.695 125.797 202.186 125.812 203.168V206H125.09V203.211C125.09 202.909 125.021 202.684 124.883 202.535C124.745 202.384 124.513 202.309 124.188 202.309C123.919 202.309 123.697 202.389 123.52 202.551C123.342 202.71 123.24 202.924 123.211 203.195V206H122.484V203.23C122.484 202.616 122.184 202.309 121.582 202.309C121.108 202.309 120.784 202.51 120.609 202.914V206H119.887V201.773H120.57ZM129.516 206C129.474 205.917 129.44 205.768 129.414 205.555C129.078 205.904 128.677 206.078 128.211 206.078C127.794 206.078 127.452 205.961 127.184 205.727C126.918 205.49 126.785 205.19 126.785 204.828C126.785 204.388 126.952 204.047 127.285 203.805C127.621 203.56 128.092 203.438 128.699 203.438H129.402V203.105C129.402 202.853 129.327 202.652 129.176 202.504C129.025 202.353 128.802 202.277 128.508 202.277C128.25 202.277 128.034 202.342 127.859 202.473C127.685 202.603 127.598 202.76 127.598 202.945H126.871C126.871 202.734 126.945 202.531 127.094 202.336C127.245 202.138 127.448 201.982 127.703 201.867C127.961 201.753 128.243 201.695 128.551 201.695C129.038 201.695 129.419 201.818 129.695 202.062C129.971 202.305 130.115 202.639 130.125 203.066V205.012C130.125 205.4 130.174 205.708 130.273 205.938V206H129.516ZM128.316 205.449C128.543 205.449 128.758 205.391 128.961 205.273C129.164 205.156 129.311 205.004 129.402 204.816V203.949H128.836C127.951 203.949 127.508 204.208 127.508 204.727C127.508 204.953 127.583 205.13 127.734 205.258C127.885 205.385 128.079 205.449 128.316 205.449ZM131.941 201.773L131.965 202.305C132.288 201.898 132.71 201.695 133.23 201.695C134.124 201.695 134.574 202.199 134.582 203.207V206H133.859V203.203C133.857 202.898 133.786 202.673 133.648 202.527C133.513 202.382 133.301 202.309 133.012 202.309C132.777 202.309 132.572 202.371 132.395 202.496C132.217 202.621 132.079 202.785 131.98 202.988V206H131.258V201.773H131.941Z" fill="#F2F2F2"/>
    </g>
    <g class="element" data-partName="top_stripe">
        <path d="M35 10.8247L99.5 0L165 10.8247V70H35V10.8247Z" fill="black"/>
    </g>
    <g class="element" data-partName="bottom_stripe">
        <path d="M165 329.175L100.5 340L35 329.175V270H165V329.175Z" fill="black"/>
    </g>
    <g class="element" data-partName="messages_icon">
        <circle cx="57" cy="288" r="10" fill="#C4C4C4"/>
        <path d="M57.4707 281.438C53.299 281.438 50 284.225 50 287.59C50 289.023 50.6077 290.412 51.7138 291.512C51.9326 292.355 51.6669 293.247 51.0076 293.862C50.732 294.12 50.9271 294.562 51.3184 294.562C52.5706 294.562 53.7777 294.104 54.675 293.297C55.5625 293.593 56.5015 293.742 57.4707 293.742C61.654 293.742 65 290.947 65 287.59C65 284.231 61.6517 281.438 57.4707 281.438ZM57.4707 292.927C56.5121 292.927 55.5879 292.759 54.7238 292.438C54.5541 292.375 54.3603 292.416 54.237 292.542C53.7062 293.083 53.0161 293.461 52.2645 293.634C52.6786 292.894 52.7845 292.021 52.5324 291.193C52.5125 291.128 52.4756 291.068 52.425 291.02C51.428 290.061 50.873 288.843 50.873 287.59C50.873 284.65 53.836 282.252 57.4707 282.252C61.1377 282.252 64.127 284.65 64.127 287.59C64.127 290.53 61.1377 292.927 57.4707 292.927Z" fill="black"/>
        <path d="M53.9551 286.359C53.2281 286.359 52.6367 286.911 52.6367 287.59C52.6367 288.268 53.2281 288.82 53.9551 288.82C54.682 288.82 55.2734 288.268 55.2734 287.59C55.2734 286.911 54.682 286.359 53.9551 286.359ZM53.9551 288C53.7128 288 53.5156 287.816 53.5156 287.59C53.5156 287.364 53.7128 287.18 53.9551 287.18C54.1974 287.18 54.3945 287.364 54.3945 287.59C54.3945 287.816 54.1974 288 53.9551 288Z" fill="black"/>
        <path d="M57.4707 286.359C56.7438 286.359 56.1523 286.911 56.1523 287.59C56.1523 288.268 56.7438 288.82 57.4707 288.82C58.1976 288.82 58.7891 288.268 58.7891 287.59C58.7891 286.911 58.1976 286.359 57.4707 286.359ZM57.4707 288C57.2284 288 57.0312 287.816 57.0312 287.59C57.0312 287.364 57.2284 287.18 57.4707 287.18C57.713 287.18 57.9102 287.364 57.9102 287.59C57.9102 287.816 57.713 288 57.4707 288Z" fill="black"/>
        <path d="M61.0449 286.359C60.318 286.359 59.7266 286.911 59.7266 287.59C59.7266 288.268 60.318 288.82 61.0449 288.82C61.7719 288.82 62.3633 288.268 62.3633 287.59C62.3633 286.911 61.7719 286.359 61.0449 286.359ZM61.0449 288C60.8026 288 60.6055 287.816 60.6055 287.59C60.6055 287.364 60.8026 287.18 61.0449 287.18C61.2872 287.18 61.4844 287.364 61.4844 287.59C61.4844 287.816 61.2872 288 61.0449 288Z" fill="black"/>
    </g>
    <g class="element" data-partName="timer_icon">
        <circle cx="137" cy="288" r="10" fill="#C4C4C4"/>
        <path d="M137.493 281.141V279.985H138.468C139.118 279.985 139.119 279 138.468 279H135.534C134.883 279 134.883 279.985 135.534 279.985H136.508V281.141C132.911 281.394 130.062 284.401 130.062 288.062C130.062 291.888 133.175 295 137.001 295C140.827 295 143.939 291.888 143.939 288.062C143.939 284.401 141.09 281.394 137.493 281.141ZM137.001 294.015C133.718 294.015 131.048 291.344 131.048 288.062C131.048 284.779 133.718 282.108 137.001 282.108C140.284 282.108 142.954 284.779 142.954 288.062C142.954 291.344 140.284 294.015 137.001 294.015Z" fill="black"/>
        <path d="M136.391 289.835H134.363C134.363 289.588 134.417 289.476 135.563 288.697C136.227 288.247 136.788 287.617 136.788 286.817C136.788 285.811 135.921 285.169 134.943 285.165C133.608 285.159 133.018 286.201 133.128 286.852C133.263 287.657 134.378 287.403 134.378 286.888C134.378 286.094 135.507 286.172 135.507 286.857C135.507 287.229 135.178 287.574 134.283 288.215C132.86 289.235 133.035 289.539 133.035 290.554C133.035 290.816 133.385 290.958 133.597 290.958H136.391C136.897 290.958 136.926 289.835 136.391 289.835Z" fill="black"/>
        <path d="M140.575 288.563H140.265V288.042C140.265 287.504 138.984 287.514 138.984 288.042V288.563H138.383L139.753 285.815C139.975 285.281 138.946 284.839 138.619 285.494L136.807 289.047C136.648 289.302 136.757 289.75 137.176 289.75H138.984V290.553C138.984 291.096 140.265 291.091 140.265 290.553V289.75H140.575C141.075 289.75 141.138 288.563 140.575 288.563Z" fill="black"/>
    </g>
    <g class="element" data-partName="music_player_icon">
        <circle cx="97" cy="288" r="10" fill="#70E1FA"/>
        <path d="M104.121 287.85V287.592C104.121 283.924 101.09 281 97.4707 281C93.8274 281 90.8789 283.948 90.8789 287.592V287.85C90.3158 288.371 90 289.089 90 289.848C90 291.302 91.1828 292.484 92.6367 292.484C93.0487 292.484 92.7985 292.484 93.9551 292.484C94.682 292.484 95.2734 291.893 95.2734 291.166V288.471C95.2734 287.744 94.682 287.152 93.9551 287.152H93.5402C93.7595 285.178 95.4384 283.637 97.4707 283.637C99.5331 283.637 101.237 285.178 101.459 287.152H101.045C100.318 287.152 99.7266 287.744 99.7266 288.471V291.166C99.7266 291.893 100.318 292.484 101.045 292.484H101.484V292.924C101.484 293.651 100.893 294.242 100.166 294.242H99.651C99.4696 293.731 98.9811 293.363 98.4082 293.363H97.4707C96.7438 293.363 96.1523 293.955 96.1523 294.682C96.1523 295.409 96.7438 296 97.4707 296H98.4082C98.9811 296 99.4696 295.633 99.651 295.121H100.166C101.378 295.121 102.363 294.135 102.363 292.924V292.484C103.817 292.484 105 291.302 105 289.848C105 289.09 104.685 288.372 104.121 287.85ZM98.4082 295.121H97.4707C97.2284 295.121 97.0312 294.924 97.0312 294.682C97.0312 294.439 97.2284 294.242 97.4707 294.242H98.4082C98.6505 294.242 98.8477 294.439 98.8477 294.682C98.8477 294.924 98.6505 295.121 98.4082 295.121ZM92.6367 291.605C91.6675 291.605 90.8789 290.817 90.8789 289.848C90.8789 288.863 91.6839 288.031 92.6367 288.031V291.605ZM93.9551 288.031C94.1974 288.031 94.3945 288.228 94.3945 288.471V291.166C94.3945 291.408 94.1974 291.605 93.9551 291.605H93.5156V288.031H93.9551ZM101.484 291.605H101.045C100.803 291.605 100.605 291.408 100.605 291.166V288.471C100.605 288.228 100.803 288.031 101.045 288.031H101.484V291.605ZM102.343 287.152C102.118 284.704 100.013 282.758 97.4707 282.758C94.9534 282.758 92.8797 284.692 92.6569 287.152H92.6367C92.3357 287.152 92.0419 287.205 91.765 287.306C91.9145 284.288 94.4165 281.879 97.4707 281.879C100.556 281.879 103.084 284.288 103.235 287.306C102.958 287.205 102.664 287.152 102.363 287.152H102.343ZM102.363 291.605V288.031C103.316 288.031 104.121 288.863 104.121 289.848C104.121 290.817 103.333 291.605 102.363 291.605Z" fill="black"/>
    </g>
</svg>
